<svg xmlns="http://www.w3.org/2000/svg" width="840" height="270" viewBox="0 0 840 270" role="img" aria-label="Secret room with three treasure chests. Chest A reads 01000001, B reads 01000010, C reads 01000011. Find the binary ASCII code for C."><style>
.float{animation:float 4s cubic-bezier(.77,0,.175,1) infinite}
.spark{animation:spark 3s ease-in-out infinite}.late{animation-delay:-1.5s}
.cursor{animation:cursor 1s steps(2,end) infinite}
.stage{opacity:0;animation:stage 24s linear infinite}.s2{animation-delay:6s}.s3{animation-delay:12s}.s4{animation-delay:18s}
@keyframes float{0%,100%{transform:translateY(0)}50%{transform:translateY(-5px)}}
@keyframes spark{0%,100%{opacity:.15}50%{opacity:1}}
@keyframes cursor{0%,49%{opacity:1}50%,100%{opacity:0}}
@keyframes stage{0%,23%{opacity:1}25%,100%{opacity:0}}
@media(prefers-reduced-motion:reduce){.float,.spark,.cursor,.stage{animation:none}.stage{opacity:0}.s1{opacity:1}.spark{opacity:.6}}
</style><rect x="2" y="2" width="836" height="266" fill="#101a2b" stroke="#34445a" stroke-width="2"/><path d="M2 42H838" stroke="#34445a"/><text x="24" y="28" fill="#f5d77a" font-family="monospace" font-size="15" font-weight="bold" letter-spacing="2">SECRET ROOM / THE BINARY KEY</text><text x="24" y="68" fill="#e6d9b8" font-family="monospace" font-size="13">The key is in the chest whose binary ASCII label spells C.</text><path d="M24 222H816" stroke="#34445a" stroke-width="2"/><g><text x="150" y="105" text-anchor="middle" fill="#9aafc7" font-family="monospace" font-size="15">01000001</text><g class="float" style="animation-delay:0.0s"><path d="M101 150V128H111V118H189V128H199V150Z" fill="#b98938" stroke="#f5d77a" stroke-width="3"/><path d="M101 150H199V201H101Z" fill="#6c4930" stroke="#f5d77a" stroke-width="3"/><path d="M117 121V199M183 121V199M101 151H199" stroke="#e4b852" stroke-width="5"/><rect x="141" y="143" width="18" height="25" fill="#f5d77a"/><rect x="148" y="150" width="4" height="10" fill="#111c2c"/></g><text x="150" y="247" text-anchor="middle" fill="#f5d77a" font-family="monospace" font-size="16" font-weight="bold">CHEST A</text></g><g><text x="420" y="105" text-anchor="middle" fill="#9aafc7" font-family="monospace" font-size="15">01000010</text><g class="float" style="animation-delay:-1.3s"><path d="M371 150V128H381V118H459V128H469V150Z" fill="#b98938" stroke="#f5d77a" stroke-width="3"/><path d="M371 150H469V201H371Z" fill="#6c4930" stroke="#f5d77a" stroke-width="3"/><path d="M387 121V199M453 121V199M371 151H469" stroke="#e4b852" stroke-width="5"/><rect x="411" y="143" width="18" height="25" fill="#f5d77a"/><rect x="418" y="150" width="4" height="10" fill="#111c2c"/></g><text x="420" y="247" text-anchor="middle" fill="#f5d77a" font-family="monospace" font-size="16" font-weight="bold">CHEST B</text></g><g><text x="690" y="105" text-anchor="middle" fill="#9aafc7" font-family="monospace" font-size="15">01000011</text><g class="float" style="animation-delay:-2.6s"><path d="M641 150V128H651V118H729V128H739V150Z" fill="#b98938" stroke="#f5d77a" stroke-width="3"/><path d="M641 150H739V201H641Z" fill="#6c4930" stroke="#f5d77a" stroke-width="3"/><path d="M657 121V199M723 121V199M641 151H739" stroke="#e4b852" stroke-width="5"/><rect x="681" y="143" width="18" height="25" fill="#f5d77a"/><rect x="688" y="150" width="4" height="10" fill="#111c2c"/></g><text x="690" y="247" text-anchor="middle" fill="#f5d77a" font-family="monospace" font-size="16" font-weight="bold">CHEST C</text></g><g fill="#f5d77a"><rect class="spark" x="56" y="116" width="5" height="5"/><rect class="spark late" x="770" y="135" width="5" height="5"/></g></svg>